<?xml version="1.0" encoding="UTF-8" standalone="no"?>
<svg
   xmlns:dc="http://purl.org/dc/elements/1.1/"
   xmlns:cc="http://creativecommons.org/ns#"
   xmlns:rdf="http://www.w3.org/1999/02/22-rdf-syntax-ns#"
   xmlns:svg="http://www.w3.org/2000/svg"
   xmlns="http://www.w3.org/2000/svg"
   xmlns:sodipodi="http://sodipodi.sourceforge.net/DTD/sodipodi-0.dtd"
   xmlns:inkscape="http://www.inkscape.org/namespaces/inkscape"
   width="28.36"
   height="28.3"
   viewBox="0 0 28.36 28.3"
   version="1.1"
   id="svg6769"
   sodipodi:docname="logo-solomoW.svg"
   inkscape:version="0.92.4 (5da689c313, 2019-01-14)">
  <metadata
     id="metadata6773">
    <rdf:RDF>
      <cc:Work
         rdf:about="">
        <dc:format>image/svg+xml</dc:format>
        <dc:type
           rdf:resource="http://purl.org/dc/dcmitype/StillImage" />
        <dc:title>list-rdv</dc:title>
      </cc:Work>
    </rdf:RDF>
  </metadata>
  <sodipodi:namedview
     pagecolor="#ffffff"
     bordercolor="#666666"
     borderopacity="1"
     objecttolerance="10"
     gridtolerance="10"
     guidetolerance="10"
     inkscape:pageopacity="0"
     inkscape:pageshadow="2"
     inkscape:window-width="1920"
     inkscape:window-height="1017"
     id="namedview6771"
     showgrid="false"
     inkscape:zoom="23.586884"
     inkscape:cx="14.084852"
     inkscape:cy="14.636605"
     inkscape:window-x="-8"
     inkscape:window-y="-8"
     inkscape:window-maximized="1"
     inkscape:current-layer="g6765" />
  <defs
     id="defs6741">
    <style
       id="style6739">
      .cls-1, .cls-3, .cls-4 {
        fill: none;
        stroke-miterlimit: 10;
      }

      .cls-1 {
        stroke: #333;
        stroke-width: 0.35px;
      }

      .cls-2 {
        fill: #333;
      }

      .cls-3 {
        stroke: #fff;
      }

      .cls-3, .cls-4 {
        stroke-width: 2.11px;
      }

      .cls-4 {
        stroke: #0e9b25;
      }
    </style>
  </defs>
  <title
     id="title6743">list-rdv</title>
  <g
     id="Layer_2"
     data-name="Layer 2">
    <g
       id="Calque_1"
       data-name="Calque 1">
      <g
         id="g6765">
        <line
           class="cls-1"
           x1="7.3899999"
           y1="9.8699999"
           x2="7.3899999"
           y2="27.49"
           id="line6745"
           style="fill:none;stroke:#333333;stroke-width:0.34999999px;stroke-miterlimit:10" />
        <line
           class="cls-1"
           x1="14.09"
           y1="9.8699999"
           x2="14.09"
           y2="27.49"
           id="line6747"
           style="fill:none;stroke:#333333;stroke-width:0.34999999px;stroke-miterlimit:10" />
        <line
           class="cls-1"
           x1="0.87"
           y1="15.68"
           x2="27.66"
           y2="15.68"
           id="line6749"
           style="fill:none;stroke:#333333;stroke-width:0.34999999px;stroke-miterlimit:10" />
        <line
           class="cls-1"
           x1="0.87"
           y1="21.67"
           x2="27.66"
           y2="21.67"
           id="line6751"
           style="fill:none;stroke:#333333;stroke-width:0.34999999px;stroke-miterlimit:10" />
        <line
           class="cls-1"
           x1="20.780001"
           y1="9.8699999"
           x2="20.780001"
           y2="27.49"
           id="line6753"
           style="fill:none;stroke:#333333;stroke-width:0.34999999px;stroke-miterlimit:10" />
        <g
           id="g6759">
          <path
             class="cls-2"
             d="M 23.76,2 H 21 V 0.81 a 0.81,0.81 0 1 0 -1.61,0 V 5 A 1.57,1.57 0 0 0 18.58,6.37 1.61,1.61 0 1 0 21,5 V 3.64 h 2.75 a 3,3 0 0 1 3,3 V 9.1 H 1.61 V 6.63 a 3,3 0 0 1 3,-3 H 6 V 2 H 4.6 A 4.6,4.6 0 0 0 0,6.63 V 23.7 a 4.6,4.6 0 0 0 4.6,4.6 h 19.16 a 4.6,4.6 0 0 0 4.6,-4.6 V 6.63 A 4.6,4.6 0 0 0 23.76,2 Z m 3,21.67 a 3,3 0 0 1 -3,3 H 4.6 a 3,3 0 0 1 -3,-3 v -13 h 25.18 v 13 z"
             id="path6755"
             inkscape:connector-curvature="0"
             style="fill:#333333" />
          <path
             class="cls-2"
             d="M 8.15,8 A 1.6,1.6 0 0 0 9,5 V 3.61 h 9.13 V 2 H 9 V 0.81 a 0.81,0.81 0 0 0 -1.61,0 V 5 A 1.57,1.57 0 0 0 6.58,6.37 1.6,1.6 0 0 0 8.15,8 Z"
             id="path6757"
             inkscape:connector-curvature="0"
             style="fill:#333333" />
        </g>
        <polyline
           class="cls-3"
           points="8.27 19.38 12.68 23.79 21.31 15.15"
           id="polyline6761"
           style="fill:none;stroke:#ffffff;stroke-width:2.1099999px;stroke-miterlimit:10" />
        <polyline
           class="cls-4"
           points="7.92 17.97 12.33 22.38 21.31 13.39"
           id="polyline6763"
           style="fill:none;stroke:#0e9b25;stroke-width:2.1099999px;stroke-miterlimit:10" />
        <path
           style="fill:#ffffff;fill-opacity:1;stroke:none;stroke-width:0.00508757;stroke-miterlimit:4;stroke-dasharray:none;stroke-opacity:1"
           d="M 3.7310048,28.189635 C 2.8303622,27.998989 2.1028773,27.627639 1.4697071,27.035339 0.684244,26.300576 0.16451714,25.249973 0.04866044,24.16276 0.02033713,23.89697 0.0105631,20.700955 0.0201947,14.854734 0.03627685,5.0931364 0.01579918,5.8636888 0.27956112,5.0950591 0.77402631,3.6541362 1.9618332,2.5725092 3.5141395,2.1496248 3.800078,2.0717285 3.994553,2.0565645 4.916621,2.0402673 L 5.9871312,2.0213465 V 2.8099123 3.5984782 L 5.2345943,3.5993181 C 4.378006,3.6002741 4.0222826,3.6411895 3.6030707,3.786977 2.8162683,4.0605999 2.1286425,4.7166437 1.8120795,5.4957101 1.6185432,5.9720062 1.5779011,6.3721417 1.5779011,7.8012796 V 9.1100159 H 14.169645 26.761389 L 26.760651,7.7003341 C 26.759799,6.0665269 26.738251,5.9055468 26.438617,5.2943359 26.270921,4.9522598 26.182939,4.8338347 25.854732,4.5084148 25.541664,4.1980037 25.399879,4.092055 25.107927,3.9503661 24.493981,3.6524076 24.400272,3.6408746 22.593229,3.6408746 H 20.995472 V 4.33465 5.0284254 l 0.167306,0.1159429 c 0.196112,0.135906 0.438864,0.474116 0.532222,0.7415087 0.07934,0.2272496 0.08971,0.6789226 0.02152,0.9373841 -0.106706,0.4044447 -0.431785,0.7882478 -0.848238,1.0014667 -0.211981,0.1085315 -0.273653,0.1193859 -0.678343,0.1193859 -0.40469,0 -0.466363,-0.010854 -0.678343,-0.1193859 C 19.096414,7.6121593 18.770021,7.227615 18.664189,6.8263441 18.497119,6.1928849 18.724606,5.5057996 19.22239,5.1403927 l 0.206265,-0.1514121 -0.003,-2.2460926 -0.003,-2.24609246 0.103887,-0.17726941 c 0.287557,-0.49067961 1.012035,-0.50144361 1.331052,-0.0197762 0.114958,0.17356952 0.116838,0.18725513 0.130569,0.95053657 l 0.01393,0.7744317 1.745521,0.014976 c 1.731388,0.014855 1.748853,0.015881 2.157013,0.1268179 1.619461,0.4401637 2.840835,1.6608586 3.290515,3.2886843 l 0.113673,0.4114918 v 9.2848208 9.284821 l -0.112738,0.407807 c -0.448459,1.622206 -1.672929,2.846677 -3.295136,3.295135 L 24.493135,28.25201 14.29679,28.25991 C 4.5313091,28.26751 4.0848323,28.26451 3.7309608,28.18962 Z M 7.2166281,24.266744 V 21.828949 H 4.3933518 1.5700759 l 0.017653,1.197699 c 0.016259,1.103067 0.025273,1.221149 0.1140868,1.494475 0.1709304,0.526041 0.3750438,0.860611 0.7656273,1.254967 0.5079767,0.512884 1.0315037,0.783462 1.7011598,0.879223 0.1490816,0.02132 0.8958754,0.04112 1.6595414,0.04399 l 1.3884835,0.0052 z m 6.6997849,1.134105 0.0011,-1.30369 0.147811,-0.158987 c 0.0813,-0.08744 0.157094,-0.158987 0.168439,-0.158987 0.01135,0 0.02063,0.658205 0.02063,1.462678 v 1.462677 h 3.179734 3.179733 V 24.266744 21.828949 H 18.37973 16.1456 l 0.143823,-0.148388 0.143822,-0.148387 h 2.090308 2.090307 v -2.09002 -2.090019 l 0.169586,-0.165597 0.169586,-0.165596 v 2.255616 2.255616 h 2.925354 2.925355 V 18.691612 15.85105 h -2.386795 -2.386795 l -0.165596,-0.169585 -0.165596,-0.169586 h 2.552391 2.552391 v -2.437796 -2.437795 h -2.925355 -2.925354 v 1.195705 1.195704 L 20.783446,12.862101 20.61386,12.696505 v -1.030109 -1.030108 h -3.179733 -3.179734 v 2.437795 2.437796 h 1.704463 1.704462 l -0.165597,0.169586 -0.165596,0.169585 h -1.538866 -1.538866 v 1.538866 1.538866 l -0.169585,0.165596 -0.169586,0.165597 V 17.555512 15.85105 H 10.735535 7.5558013 v 1.242091 1.242091 L 7.3862156,18.500828 7.2166298,18.666424 V 17.258737 15.85105 H 4.3972663 1.5779028 v 2.840562 2.840562 h 2.8193635 2.8193635 v -1.386489 -1.386489 l 0.1721206,0.167591 0.1721207,0.167591 -0.00581,0.529956 c -0.00319,0.291475 -0.00433,0.839979 -0.00254,1.218898 l 0.00327,0.688942 h 0.6700262 0.6700266 l 0.1438228,0.148387 0.1438227,0.148388 H 8.369649 7.5557996 v 2.437795 2.437796 h 3.1797334 3.179733 l 0.0011,-1.303691 z m 10.576766,1.204114 c 0.139908,-0.03897 0.407006,-0.146177 0.59355,-0.23824 0.642487,-0.317081 1.067117,-0.741995 1.378317,-1.379239 0.268238,-0.549269 0.299961,-0.745994 0.326451,-2.02443 l 0.0235,-1.134105 h -2.93096 -2.93096 v 2.4416 2.4416 l 1.642862,-0.01817 c 1.365359,-0.0151 1.685831,-0.03013 1.897241,-0.08902 z M 7.2166281,13.074083 V 10.636288 H 4.3972646 1.5779011 v 2.437795 2.437796 h 2.8193635 2.8193635 z m 6.6986379,0 V 10.636288 H 10.735533 7.5557996 v 2.437795 2.437796 h 3.1797334 3.179733 z"
           id="path8223"
           inkscape:connector-curvature="0" />
        <path
           style="fill:#ffffff;fill-opacity:1;stroke:none;stroke-width:0.00508757;stroke-miterlimit:4;stroke-dasharray:none;stroke-opacity:1"
           d="M 7.6519488,7.8847968 C 7.3784953,7.7834422 7.2420785,7.6880298 7.008837,7.4349926 6.3876642,6.7610998 6.5030827,5.6302671 7.245146,5.1197139 L 7.4286103,4.9934874 V 2.8312 c 0,-2.3479519 -0.00736,-2.27111433 0.2399946,-2.50514989 0.3541238,-0.3350543 0.9437541,-0.25045094 1.1914846,0.1709607 0.110927,0.18869658 0.1166164,0.22646401 0.130315,0.86505499 l 0.014324,0.667744 h 4.5538925 4.553893 V 2.814144 3.5984782 H 13.554896 8.9972787 l 0.00241,0.7101404 0.00241,0.7101404 0.2021298,0.1537893 C 10.102838,5.8562431 9.9647401,7.2518302 8.944372,7.7986888 8.7056969,7.9266048 8.6392038,7.9420566 8.2765392,7.9538822 7.9587011,7.9642456 7.8269987,7.9496765 7.6519488,7.8847968 Z"
           id="path8225"
           inkscape:connector-curvature="0" />
      </g>
    </g>
  </g>
</svg>
