<svg xmlns="http://www.w3.org/2000/svg" width="28.36" height="28.3" viewBox="0 0 28.36 28.3">
  <defs>
    <style>
      .cls-1, .cls-3, .cls-4 {
        fill: none;
        stroke-miterlimit: 10;
      }

      .cls-1 {
        stroke: #333;
        stroke-width: 0.35px;
      }

      .cls-2 {
        fill: #333;
      }

      .cls-3 {
        stroke: #fff;
      }

      .cls-3, .cls-4 {
        stroke-width: 2.11px;
      }

      .cls-4 {
        stroke: #0e9b25;
      }
    </style>
  </defs>
  <title>list-rdv</title>
  <g id="Layer_2" data-name="Layer 2">
    <g id="Calque_1" data-name="Calque 1">
      <g>
        <line class="cls-1" x1="7.39" y1="9.87" x2="7.39" y2="27.49"/>
        <line class="cls-1" x1="14.09" y1="9.87" x2="14.09" y2="27.49"/>
        <line class="cls-1" x1="0.87" y1="15.68" x2="27.66" y2="15.68"/>
        <line class="cls-1" x1="0.87" y1="21.67" x2="27.66" y2="21.67"/>
        <line class="cls-1" x1="20.78" y1="9.87" x2="20.78" y2="27.49"/>
        <g>
          <path class="cls-2" d="M23.76,2H21V.81a.81.81,0,1,0-1.61,0V5a1.57,1.57,0,0,0-.81,1.37A1.61,1.61,0,1,0,21,5V3.64h2.75a3,3,0,0,1,3,3V9.1H1.61V6.63a3,3,0,0,1,3-3H6V2H4.6A4.6,4.6,0,0,0,0,6.63V23.7a4.6,4.6,0,0,0,4.6,4.6H23.76a4.6,4.6,0,0,0,4.6-4.6V6.63A4.6,4.6,0,0,0,23.76,2Zm3,21.67a3,3,0,0,1-3,3H4.6a3,3,0,0,1-3-3v-13H26.78v13Z"/>
          <path class="cls-2" d="M8.15,8A1.6,1.6,0,0,0,9,5V3.61h9.13V2H9V.81a.81.81,0,0,0-1.61,0V5a1.57,1.57,0,0,0-.81,1.37A1.6,1.6,0,0,0,8.15,8Z"/>
        </g>
        <polyline class="cls-3" points="8.27 19.38 12.68 23.79 21.31 15.15"/>
        <polyline class="cls-4" points="7.92 17.97 12.33 22.38 21.31 13.39"/>
      </g>
    </g>
  </g>
</svg>
